#############################################################################################################################################################################
FFMPEG\_____________________________________________________________________________________________________________________________________________________________________
#############################################################################################################################################################################

# MKV TO MP4
$ ffmpeg -i input.mkv -vcodec copy -acodec copy output.mp4

# BATCH MP3 CONVERT

#!/bin/bash
for f in **/*.flac; do ffmpeg -i "$f" -ab 320k -map_metadata 0 -id3v2_version 3 "${f%.*}".mp3; done
./script1

find . -name \*.flac -type f -delete


# REMOVE AUDIO
$ ffmpeg -i input.mp4 -c:v copy -an output.mp4

# EXTRACT AUDIO
$ ffmpeg -i input.mkv -vn -acodec copy output.aac

# JOIN A+V
$ ffmpeg -i video.mp4 -i audio.wav -c:v copy -c:a aac output.mp4

### EXTRACT FRAMES ####

# EXTRACT ALL FRAMES (FOR 4-5 MINS VIDS)
$ ffmpeg -i input.mp4 -vsync 0 thumb%04d.jpeg
$ ffmpeg -i input.mov -r 24/1 thumb%03d.jpg

# EXTRACT IMAGE EVERY SECOND
$ ffmpeg -i input.mp4 -vf fps=1 thumb%04d.jpeg      

# EXTRACT ONE IMAGE EVERY 10 MINUTES (600 SEC)  (INCREMENT 150/600 SCREEN REC)
$ ffmpeg -i input.mp4 -vf fps=1/600  thumb%04d.jpeg      

## SOURCE COMPARISON
ffmpeg -ss 01:11:30.000 -to 01:12:30.000 -i input.mkv  -vf fps=1  C:\Users\SLVR\Pictures\comparison\%04d_265.bmp

# CONTACT SHEET <decrese the value for more famres (mod(n\,600))>
ffmpeg -i input.mp4 -vf "select=not(mod(n\,600)),scale=1600:-1,tile=3x40" output.jpg 

# CUT VIDEO (accurate)
$ ffmpeg -ss 00:03:30.000 -i input.mp4 -vcodec copy -acodec copy -copyinkf -movflags use_metadata_tags -to 00:42:17.000 output.mp4

# CUT FROM 0 TO 30 SECONDS
$ ffmpeg -ss 0 -to 30 -i input.flac out.flac

# REMOVE FIRST 30 SECONDS
$ ffmpeg -ss 30 -i input.flac out.flac

ffmpeg -ss 59 -i input.m4a out.m4a

# MERGE /////   in a text file add lines as   [file 'input_a.mp4'] |||| [file 'input_b.mp4']
$ ffmpeg -f concat -i file_list.txt -c copy output.mkv

# GENERATE CONCAT FILE FOR MERGE
$ for file in IMG*.jpg; do echo "file '$file'"; done > file_list.txt

## IMAGES TO VIDEO
ffmpeg -f image2 -framerate 0.125 -i IMG%02d.jpg -c:v libx264 -pix_fmt yuv420p -r 25 -vf "scale=1920:1080:force_original_aspect_ratio=decrease,pad=1920:1080:(ow-iw)/2:(oh-ih)/2" output.mp4

# METADATA
$ ffmpeg -i input.mkv -color_range tv -color_primaries bt709 -color_trc bt709 -colorspace bt709 -c:v copy -c:a copy out.mkv

# CRF [28-default ||| 25-good ||| 24-large ||| 22-larger]

# 8bit
$ ffmpeg -i input.mkv -c:v libx265 -preset medium -crf 28 -c:a aac -b:a 128k ouputx265.mkv

# 10bit
$ ffmpeg -i input.mp4 -c:v libx265 -preset medium -crf 28 -pix_fmt yuv420p10le -c:a copy -y output-x26510bit.mkv


# 10bit with littlegrain
$ ffmpeg -y -i input.mp4 -c:v libx265 -preset medium -crf 26 -pix_fmt yuv420p10le -x265-params psy-rd=2:psy-rdoq=6:rdoq-level=1 -c:a copy output-x26510bit.mkv
[psy-rdoq=7] [prn]

# VERTICAL FLIP
$ ffmpeg -i input.mp4 -c copy -metadata:s:v:0 rotate=0 output.mp4    {rotate=90}*

0 = 90CounterCLockwise and Vertical Flip (default) [exif]
1 = 90Clockwise [#mobiles]
2 = 90CounterClockwise
3 = 90Clockwise and Vertical Flip

ffmpeg -i INPUT -vf vflip -c:a copy OUTPUT  {vflip }

[find flip horizantal]  ctrl+z pot


# ASPECT RATIO
$ ffmpeg -i input.mp4 -vcodec copy -acodec copy -aspect x:y output.mp4


# AUDIO MAP  

Check which streams exists in your file. You should see something like this:

ffmpeg -i gog.mkv -f ffmetadata - 2>&1 | grep Stream  ## OR ##  ffmpeg -i file.mp4

Stream #0.0: Video: mpeg4, yuv420p, 720x304 [PAR 1:1 DAR 45:19], 23.98 tbr, 23.98 tbn, 23.98 tbc
Stream #0.1: Audio: ac3, 48000 Hz, 5.1, s16, 384 kb/s
Stream #0.2: Audio: ac3, 48000 Hz, 5.1, s16, 384 kb/s

Then run:

ffmpeg -i file.mp4 -map 0:0 -map 0:2 -acodec copy -vcodec copy new_file.mp4 

to copy video stream and 2nd audio stream to new_file.mp4:




###########################################################################################################################################################
###########################################################################################################################################################
###########################################################################################################################################################




# HANDBRAKE CLI   ### C:\Users\SLVR\AppData\Roaming\HandBrake
HandBrakeCLI.exe --preset-import-file "presets.json" -Z "pf" -i input.mkv -o output.mkv




# MAKE MKV CLI  ## C:\Program Files (x86)\MakeMKV
$ makemkvcon -r info disc:9999

$ makemkvcon mkv disc:2 all E:\output # CRAETE MKV  IN WI